{
  "accessors": [
    {
      "bufferView": 2,
      "componentType": 5126,
      "count": 6,
      "max": [
        0.45549800992012024,
        -0.3315880000591278,
        -0.23879000544548035
      ],
      "min": [
        -0.45432600378990173,
        -0.9367790222167969,
        -0.2410299926996231
      ],
      "type": "VEC3"
    },
    {
      "bufferView": 1,
      "componentType": 5126,
      "count": 6,
      "max": [
        0.0,
        0.0
      ],
      "min": [
        0.0,
        0.0
      ],
      "type": "VEC2"
    },
    {
      "bufferView": 0,
      "componentType": 5125,
      "count": 8,
      "type": "SCALAR"
    },
    {
      "bufferView": 2,
      "byteOffset": 72,
      "componentType": 5126,
      "count": 1230,
      "max": [
        0.538769006729126,
        0.2350980043411255,
        0.24431300163269043
      ],
      "min": [
        -0.5376399755477905,
        -1.2101869583129883,
        -0.38471800088882446
      ],
      "type": "VEC3"
    },
    {
      "bufferView": 2,
      "byteOffset": 14832,
      "componentType": 5126,
      "count": 1230,
      "max": [
        1.0,
        0.9981148838996887,
        0.9967924952507019
      ],
      "min": [
        -1.0,
        -0.9995909333229065,
        -0.9812366962432861
      ],
      "type": "VEC3"
    },
    {
      "bufferView": 1,
      "byteOffset": 48,
      "componentType": 5126,
      "count": 1230,
      "max": [
        0.982492983341217,
        0.9779859781265259
      ],
      "min": [
        0.021446000784635544,
        0.010998000390827656
      ],
      "type": "VEC2"
    },
    {
      "bufferView": 0,
      "byteOffset": 32,
      "componentType": 5125,
      "count": 2340,
      "type": "SCALAR"
    },
    {
      "bufferView": 2,
      "byteOffset": 29592,
      "componentType": 5126,
      "count": 65532,
      "max": [
        0.40158599615097046,
        0.1926340013742447,
        0.22921499609947205
      ],
      "min": [
        -0.4275059998035431,
        -1.2097469568252563,
        -0.4043160080909729
      ],
      "type": "VEC3"
    },
    {
      "bufferView": 2,
      "byteOffset": 815976,
      "componentType": 5126,
      "count": 65532,
      "max": [
        1.0,
        0.9999638795852661,
        0.9999778270721436
      ],
      "min": [
        -1.0,
        -0.9999984502792358,
        -0.9999973773956299
      ],
      "type": "VEC3"
    },
    {
      "bufferView": 1,
      "byteOffset": 9888,
      "componentType": 5126,
      "count": 65532,
      "max": [
        0.9814959764480591,
        0.9395049810409546
      ],
      "min": [
        0.0327720008790493,
        0.011931000277400017
      ],
      "type": "VEC2"
    },
    {
      "bufferView": 0,
      "byteOffset": 9392,
      "componentType": 5125,
      "count": 189849,
      "type": "SCALAR"
    },
    {
      "bufferView": 2,
      "byteOffset": 1602360,
      "componentType": 5126,
      "count": 662,
      "max": [
        0.25396400690078735,
        -1.101714015007019,
        -0.1581140011548996
      ],
      "min": [
        -0.24407899379730225,
        -1.2014340162277222,
        -0.20591199398040771
      ],
      "type": "VEC3"
    },
    {
      "bufferView": 2,
      "byteOffset": 1610304,
      "componentType": 5126,
      "count": 662,
      "max": [
        0.9999958276748657,
        0.9994803071022034,
        0.9998948574066162
      ],
      "min": [
        -0.9999957084655762,
        -0.9995942711830139,
        -0.9999973773956299
      ],
      "type": "VEC3"
    },
    {
      "bufferView": 1,
      "byteOffset": 534144,
      "componentType": 5126,
      "count": 662,
      "max": [
        0.9706050157546997,
        0.44572699069976807
      ],
      "min": [
        0.5570499897003174,
        0.011931000277400017
      ],
      "type": "VEC2"
    },
    {
      "bufferView": 0,
      "byteOffset": 768788,
      "componentType": 5125,
      "count": 1665,
      "type": "SCALAR"
    },
    {
      "bufferView": 2,
      "byteOffset": 1618248,
      "componentType": 5126,
      "count": 15,
      "max": [
        0.5244629979133606,
        0.2203039973974228,
        0.24431300163269043
      ],
      "min": [
        -0.5241310000419617,
        -1.1915830373764038,
        -0.14398199319839478
      ],
      "type": "VEC3"
    },
    {
      "bufferView": 2,
      "byteOffset": 1618428,
      "componentType": 5126,
      "count": 15,
      "max": [
        0.9082831144332886,
        0.26580724120140076,
        -0.39149272441864014
      ],
      "min": [
        -0.9082831144332886,
        0.1474972516298294,
        -0.9640263319015503
      ],
      "type": "VEC3"
    },
    {
      "bufferView": 1,
      "byteOffset": 539440,
      "componentType": 5126,
      "count": 15,
      "max": [
        0.6418750286102295,
        1.0
      ],
      "min": [
        0.0,
        -0.0
      ],
      "type": "VEC2"
    },
    {
      "bufferView": 0,
      "byteOffset": 775448,
      "componentType": 5125,
      "count": 27,
      "type": "SCALAR"
    }
  ],
  "asset": {
    "extras": {
      "author": "MichaelEGA (https://sketchfab.com/MichaelEGA)",
      "license": "CC-BY-4.0 (http://creativecommons.org/licenses/by/4.0/)",
      "source": "https://sketchfab.com/3d-models/x-wing-cockpit-version-3-646156d1261e41d9b4197a11ea1b757a",
      "title": "X-Wing Cockpit Version 3"
    },
    "generator": "Sketchfab-16.75.0",
    "version": "2.0"
  },
  "bufferViews": [
    {
      "buffer": 0,
      "byteLength": 775556,
      "name": "floatBufferViews",
      "target": 34963
    },
    {
      "buffer": 0,
      "byteLength": 539560,
      "byteOffset": 775556,
      "byteStride": 8,
      "name": "floatBufferViews",
      "target": 34962
    },
    {
      "buffer": 0,
      "byteLength": 1618608,
      "byteOffset": 1315116,
      "byteStride": 12,
      "name": "floatBufferViews",
      "target": 34962
    }
  ],
  "buffers": [
    {
      "byteLength": 2933724,
      "uri": "scene.bin"
    }
  ],
  "extensionsUsed": [
    "KHR_materials_emissive_strength"
  ],
  "images": [
    {
      "uri": "textures/cockpit_baseColor.png"
    },
    {
      "uri": "textures/cockpit_metallicRoughness.png"
    },
    {
      "uri": "textures/cockpit_emissive.png"
    }
  ],
  "materials": [
    {
      "doubleSided": true,
      "emissiveFactor": [
        1.0,
        1.0,
        1.0
      ],
      "emissiveTexture": {
        "index": 2
      },
      "extensions": {
        "KHR_materials_emissive_strength": {
          "emissiveStrength": 4.490990504742546
        }
      },
      "name": "cockpit",
      "pbrMetallicRoughness": {
        "baseColorTexture": {
          "index": 0
        },
        "metallicRoughnessTexture": {
          "index": 1
        },
        "roughnessFactor": 0.6
      }
    },
    {
      "alphaMode": "BLEND",
      "doubleSided": true,
      "name": "window",
      "pbrMetallicRoughness": {
        "baseColorFactor": [
          1.0,
          1.0,
          1.0,
          0.2547627393418205
        ],
        "metallicFactor": 0.0,
        "roughnessFactor": 0.6
      }
    }
  ],
  "meshes": [
    {
      "name": "Object_0",
      "primitives": [
        {
          "attributes": {
            "POSITION": 0,
            "TEXCOORD_0": 1
          },
          "indices": 2,
          "material": 0,
          "mode": 1
        }
      ]
    },
    {
      "name": "Object_1",
      "primitives": [
        {
          "attributes": {
            "NORMAL": 4,
            "POSITION": 3,
            "TEXCOORD_0": 5
          },
          "indices": 6,
          "material": 0,
          "mode": 4
        }
      ]
    },
    {
      "name": "Object_2",
      "primitives": [
        {
          "attributes": {
            "NORMAL": 8,
            "POSITION": 7,
            "TEXCOORD_0": 9
          },
          "indices": 10,
          "material": 0,
          "mode": 4
        }
      ]
    },
    {
      "name": "Object_3",
      "primitives": [
        {
          "attributes": {
            "NORMAL": 12,
            "POSITION": 11,
            "TEXCOORD_0": 13
          },
          "indices": 14,
          "material": 0,
          "mode": 4
        }
      ]
    },
    {
      "name": "Object_4",
      "primitives": [
        {
          "attributes": {
            "NORMAL": 16,
            "POSITION": 15,
            "TEXCOORD_0": 17
          },
          "indices": 18,
          "material": 1,
          "mode": 4
        }
      ]
    }
  ],
  "nodes": [
    {
      "children": [
        1
      ],
      "matrix": [
        1.0,
        0.0,
        0.0,
        0.0,
        0.0,
        2.220446049250313e-16,
        -1.0,
        0.0,
        0.0,
        1.0,
        2.220446049250313e-16,
        0.0,
        0.0,
        0.0,
        0.0,
        1.0
      ],
      "name": "Sketchfab_model"
    },
    {
      "children": [
        2,
        3,
        4,
        5,
        6
      ],
      "name": "xwing_cockpit.obj.cleaner.materialmerger.gles"
    },
    {
      "mesh": 0,
      "name": "Object_2"
    },
    {
      "mesh": 1,
      "name": "Object_3"
    },
    {
      "mesh": 2,
      "name": "Object_4"
    },
    {
      "mesh": 3,
      "name": "Object_5"
    },
    {
      "mesh": 4,
      "name": "Object_6"
    }
  ],
  "samplers": [
    {
      "magFilter": 9729,
      "minFilter": 9987,
      "wrapS": 10497,
      "wrapT": 10497
    }
  ],
  "scene": 0,
  "scenes": [
    {
      "name": "Sketchfab_Scene",
      "nodes": [
        0
      ]
    }
  ],
  "textures": [
    {
      "sampler": 0,
      "source": 0
    },
    {
      "sampler": 0,
      "source": 1
    },
    {
      "sampler": 0,
      "source": 2
    }
  ]
}
